<?xml version="1.0" encoding="UTF-8"?><svg id="slide_10" xmlns="http://www.w3.org/2000/svg" xmlns:xlink="http://www.w3.org/1999/xlink" viewBox="0 0 800 426"><defs><style>.cls-1{letter-spacing:.12em;}.cls-2,.cls-3,.cls-4,.cls-5,.cls-6,.cls-7,.cls-8,.cls-9,.cls-10,.cls-11{stroke-miterlimit:10;}.cls-2,.cls-12{fill:#f6a6b0;}.cls-2,.cls-8{stroke:#f6a6b0;}.cls-2,.cls-9{font-family:Roboto-Black, Roboto;font-size:24px;}.cls-3{fill:url(#radial-gradient);}.cls-3,.cls-4,.cls-7,.cls-11{stroke:#606060;}.cls-3,.cls-7,.cls-11{stroke-width:6px;}.cls-4{stroke-width:3px;}.cls-4,.cls-5,.cls-8,.cls-10,.cls-11{fill:none;}.cls-5,.cls-6,.cls-8,.cls-10{stroke-width:8px;}.cls-5,.cls-6,.cls-9,.cls-10{stroke:#a7ddef;}.cls-6,.cls-9{fill:#a7ddef;}.cls-7{fill:url(#radial-gradient-2);}.cls-13{letter-spacing:.11em;}.cls-9,.cls-14{letter-spacing:.15em;}.cls-15{letter-spacing:.16em;}.cls-10{stroke-dasharray:0 0 24 12;}</style><radialGradient id="radial-gradient" cx="344.39" cy="117.97" fx="344.39" fy="117.97" r="24.97" gradientUnits="userSpaceOnUse"><stop offset="0" stop-color="#ff931e"/><stop offset=".14" stop-color="#ff9421"/><stop offset=".27" stop-color="#ff9a2d"/><stop offset=".4" stop-color="#ffa341"/><stop offset=".54" stop-color="#ffb15c"/><stop offset=".67" stop-color="#ffc280"/><stop offset=".8" stop-color="#ffd7ab"/><stop offset=".93" stop-color="#ffefde"/><stop offset="1" stop-color="#fff"/></radialGradient><radialGradient id="radial-gradient-2" cx="704.27" fx="704.27" xlink:href="#radial-gradient"/></defs><g><circle class="cls-11" cx="162.73" cy="117.97" r="24.97"/><path class="cls-4" d="M180.21,122.9s0-3.68-3.18-3.68-3.18,3.68-3.18,3.68c0,0,.4,5.06-3.58,5.06s-3.58-4.6-3.58-4.6c0,0,.52-4.14-3.12-4.14s-3.09,4.37-3.09,4.37c0,0,.53,4.15-3.59,4.15s-3.72-3.92-3.72-3.92c0,0,.53-4.3-3.71-4.3s-3.44,4.3-3.44,4.3"/><path class="cls-4" d="M145.57,145.62s5.86,4.53,17.21,4.53,17.7-4.53,17.7-4.53l4.63,18.31s-8.97,4.21-21.79,4.21-21.37-4.94-21.37-4.94l3.61-17.58Z"/><path class="cls-4" d="M144.57,151.32s6.18,4.56,18.97,4.56,18.23-4.56,18.23-4.56"/><path class="cls-4" d="M143.37,157.18s7.38,4.56,20.17,4.56,20.11-4.56,20.11-4.56"/></g><g><circle class="cls-3" cx="344.39" cy="117.97" r="24.97"/><path class="cls-4" d="M361.87,122.9s0-3.68-3.18-3.68-3.18,3.68-3.18,3.68c0,0,.4,5.06-3.58,5.06s-3.58-4.6-3.58-4.6c0,0,.52-4.14-3.12-4.14s-3.09,4.37-3.09,4.37c0,0,.53,4.15-3.59,4.15s-3.72-3.92-3.72-3.92c0,0,.53-4.3-3.71-4.3s-3.44,4.3-3.44,4.3"/><path class="cls-4" d="M327.23,145.62s5.86,4.53,17.21,4.53,17.7-4.53,17.7-4.53l4.63,18.31s-8.97,4.21-21.79,4.21-21.37-4.94-21.37-4.94l3.61-17.58Z"/><path class="cls-4" d="M326.23,151.32s6.18,4.56,18.97,4.56,18.23-4.56,18.23-4.56"/><path class="cls-4" d="M325.03,157.18s7.38,4.56,20.17,4.56,20.11-4.56,20.11-4.56"/></g><g><circle class="cls-11" cx="523.47" cy="117.97" r="24.97"/><path class="cls-4" d="M540.95,122.9s0-3.68-3.18-3.68-3.18,3.68-3.18,3.68c0,0,.4,5.06-3.58,5.06s-3.58-4.6-3.58-4.6c0,0,.52-4.14-3.12-4.14s-3.09,4.37-3.09,4.37c0,0,.53,4.15-3.59,4.15s-3.72-3.92-3.72-3.92c0,0,.53-4.3-3.71-4.3s-3.44,4.3-3.44,4.3"/><path class="cls-4" d="M506.31,145.62s5.86,4.53,17.21,4.53,17.7-4.53,17.7-4.53l4.63,18.31s-8.97,4.21-21.79,4.21-21.37-4.94-21.37-4.94l3.61-17.58Z"/><path class="cls-4" d="M505.31,151.32s6.18,4.56,18.97,4.56,18.23-4.56,18.23-4.56"/><path class="cls-4" d="M504.11,157.18s7.38,4.56,20.17,4.56,20.11-4.56,20.11-4.56"/></g><g><circle class="cls-7" cx="704.27" cy="117.97" r="24.97"/><path class="cls-4" d="M721.75,122.9s0-3.68-3.18-3.68-3.18,3.68-3.18,3.68c0,0,.4,5.06-3.58,5.06s-3.58-4.6-3.58-4.6c0,0,.52-4.14-3.12-4.14s-3.09,4.37-3.09,4.37c0,0,.53,4.15-3.59,4.15s-3.72-3.92-3.72-3.92c0,0,.53-4.3-3.71-4.3s-3.44,4.3-3.44,4.3"/><path class="cls-4" d="M687.11,145.62s5.86,4.53,17.21,4.53,17.7-4.53,17.7-4.53l4.63,18.31s-8.97,4.21-21.79,4.21-21.37-4.94-21.37-4.94l3.61-17.58Z"/><path class="cls-4" d="M686.11,151.32s6.18,4.56,18.97,4.56,18.23-4.56,18.23-4.56"/><path class="cls-4" d="M684.92,157.18s7.38,4.56,20.17,4.56,20.11-4.56,20.11-4.56"/></g><circle class="cls-6" cx="165.69" cy="208.1" r="14.21"/><circle class="cls-6" cx="345.63" cy="208.1" r="14.21"/><line class="cls-5" x1="193.67" y1="207.67" x2="316.78" y2="207.67"/><circle class="cls-6" cx="345.63" cy="208.1" r="14.21"/><circle class="cls-6" cx="525.57" cy="208.1" r="14.21"/><line class="cls-5" x1="373.61" y1="207.67" x2="496.72" y2="207.67"/><circle class="cls-6" cx="525.57" cy="208.1" r="14.21"/><circle class="cls-6" cx="705.51" cy="208.1" r="14.21"/><line class="cls-5" x1="553.55" y1="207.67" x2="676.66" y2="207.67"/><text class="cls-9" transform="translate(140.99 255.67)"><tspan x="0" y="0">OFF</tspan></text><text class="cls-9" transform="translate(326.49 255.67)"><tspan x="0" y="0">ON</tspan></text><text class="cls-9" transform="translate(686.54 255.6)"><tspan x="0" y="0">ON</tspan></text><text class="cls-9" transform="translate(501.04 255.6)"><tspan x="0" y="0">OFF</tspan></text><polygon class="cls-12" points="705.2 271.82 690.45 297.36 719.94 297.36 705.2 271.82"/><line class="cls-5" x1="97" y1="208" x2="133.85" y2="207.83"/><line class="cls-10" x1="49" y1="208" x2="113.85" y2="207.84"/><rect class="cls-8" x="297" y="41" width="94" height="288" rx="20.83" ry="20.83"/><text class="cls-2" transform="translate(269.69 363.7)"><tspan class="cls-14" x="0" y="0">S</tspan><tspan class="cls-15" x="18.62" y="0">N</tspan><tspan class="cls-14" x="39.29" y="0">APSH</tspan><tspan class="cls-13" x="117.54" y="0">O</tspan><tspan class="cls-1" x="136.72" y="0">T</tspan></text></svg>