<?xml version="1.0" encoding="UTF-8"?><svg id="slide_16" xmlns="http://www.w3.org/2000/svg" viewBox="0 0 800 426"><defs><style>.cls-1{letter-spacing:.09em;}.cls-2,.cls-3,.cls-4,.cls-5,.cls-6,.cls-7,.cls-8,.cls-9{stroke-miterlimit:10;}.cls-2,.cls-3,.cls-5,.cls-6,.cls-9{stroke:#f6a6b0;}.cls-2,.cls-5{font-size:24px;}.cls-2,.cls-5,.cls-10{fill:#f6a6b0;}.cls-2,.cls-5,.cls-8{font-family:Roboto-Black, Roboto;}.cls-3{stroke-dasharray:0 0 21.79 10.9;}.cls-3,.cls-4,.cls-6,.cls-7,.cls-9{stroke-width:8px;}.cls-3,.cls-4,.cls-6,.cls-9{fill:none;}.cls-11{letter-spacing:.15em;}.cls-12{letter-spacing:.21em;}.cls-4,.cls-7{stroke:#a7ddef;}.cls-5,.cls-13{letter-spacing:.15em;}.cls-6{stroke-dasharray:0 0 21.92 10.96;}.cls-7{fill:#a7ddef;}.cls-8{fill:#bdbdbd;font-size:32px;stroke:#bdbdbd;stroke-width:2px;}.cls-14{letter-spacing:.26em;}.cls-15{letter-spacing:.14em;}.cls-16{letter-spacing:.06em;}.cls-17{letter-spacing:.27em;}.cls-18{letter-spacing:.27em;}.cls-19{letter-spacing:.27em;}</style></defs><g><path class="cls-9" d="M397,318c5.26-.46,39.96-4.31,63.24-46,16.27-29.15,17.78-65.69,17.66-80.32"/><polygon class="cls-10" points="501.81 211.95 497.35 215.97 477.56 193.98 457.07 215.33 452.75 211.17 477.7 185.17 501.81 211.95"/></g><circle class="cls-7" cx="155.05" cy="241.11" r="11.05"/><circle class="cls-7" cx="337.94" cy="322.17" r="11.05"/><circle class="cls-7" cx="337.94" cy="161.39" r="11.05"/><path class="cls-4" d="M180.17,241.45c47.44,0,51.11-9.07,58.06-18.91,14.11-19.97,7.12-27.95,21.24-47.67,10.59-14.78,29.74-13.79,56.68-13.79"/><path class="cls-4" d="M180.24,241.39c47.44,0,51.11,9.07,58.06,18.91,14.11,19.97,7.12,27.95,21.24,47.67,10.59,14.78,29.74,13.79,56.68,13.79"/><circle class="cls-7" cx="477.95" cy="161.39" r="11.05"/><line class="cls-4" x1="359.71" y1="161.06" x2="455.5" y2="161.06"/><text class="cls-8" transform="translate(192.15 44.96)"><tspan class="cls-17" x="0" y="0">TRANS</tspan><tspan class="cls-14" x="148.54" y="0">I</tspan><tspan class="cls-19" x="166.39" y="0">TIVE S</tspan><tspan class="cls-12" x="315.1" y="0">TA</tspan><tspan class="cls-18" x="370.6" y="0">TE</tspan></text><polygon class="cls-10" points="338.41 340.92 328.54 358.03 348.29 358.03 338.41 340.92"/><polygon class="cls-10" points="478.09 142 487.97 124.89 468.22 124.89 478.09 142"/><g><path class="cls-9" d="M501,167c4.39,0,8.37,.09,12,.24"/><path class="cls-6" d="M523.93,168.01c23.56,2.46,26.43,9.06,33,15.88,13.6,17.83,6.86,24.96,20.46,42.57,7.73,10.01,20.22,11.92,37.12,12.26"/><path class="cls-9" d="M620,238.77c3.8,.02,7.8,0,12,0"/></g><text class="cls-2" transform="translate(431.77 368.45)"><tspan class="cls-13" x="0" y="0">TRANS</tspan><tspan class="cls-15" x="97.01" y="0">I</tspan><tspan class="cls-11" x="107.51" y="0">TIVE</tspan><tspan class="cls-16" x="49.35" y="28.8">P</tspan><tspan class="cls-1" x="66.48" y="28.8">A</tspan><tspan class="cls-13" x="85.03" y="28.8">TH</tspan></text><g><path class="cls-9" d="M358.88,322.23c4.65,0,8.6,.24,11.98,.68"/><path class="cls-3" d="M381.39,325.59c8.07,3.52,9.92,9.38,12.55,15.55,8.52,19.97,4.3,27.95,12.83,47.67,3.8,8.8,9.44,12.01,16.81,13.17"/><path class="cls-9" d="M429,402.5c3.66,.18,7.66,.11,12,.11"/></g><path class="cls-4" d="M501,155.06c12.86,.02,80.12-.6,131-1.03"/><path class="cls-4" d="M501,155c33,0,48.73-8.63,55.47-18.47,13.68-19.97,6.9-27.95,20.59-47.67,10.26-14.78,28.83-13.79,54.94-13.79"/><text class="cls-5" transform="translate(544.99 233.76)"><tspan x="0" y="0">?</tspan></text></svg>