<?xml version="1.0" encoding="UTF-8"?><svg xmlns="http://www.w3.org/2000/svg" xmlns:xlink="http://www.w3.org/1999/xlink" viewBox="0 0 800 426"><defs><style>.cls-1{font-size:48px;letter-spacing:.15em;}.cls-1,.cls-2,.cls-3,.cls-4,.cls-5,.cls-6,.cls-7,.cls-8,.cls-9,.cls-10{stroke-miterlimit:10;}.cls-1,.cls-11,.cls-9{fill:#f6a6b0;}.cls-1,.cls-8,.cls-9{font-family:Roboto-Black, Roboto;}.cls-1,.cls-9,.cls-10{stroke:#f6a6b0;}.cls-2{stroke-width:3px;}.cls-2,.cls-3,.cls-5,.cls-10{fill:none;}.cls-2,.cls-4,.cls-5,.cls-6,.cls-8{stroke:#606060;}.cls-3,.cls-7{stroke:#a7ddef;}.cls-3,.cls-7,.cls-10{stroke-width:8px;}.cls-4{fill:url(#radial-gradient-2);}.cls-4,.cls-5,.cls-6{stroke-width:4px;}.cls-6{fill:url(#radial-gradient);}.cls-7{fill:#a7ddef;}.cls-8{font-size:24px;letter-spacing:.15em;}.cls-8,.cls-12{fill:#606060;}.cls-9{font-size:40.81px;letter-spacing:.15em;}</style><radialGradient id="radial-gradient" cx="249.44" cy="333.6" fx="249.44" fy="333.6" r="20.11" gradientUnits="userSpaceOnUse"><stop offset="0" stop-color="#ff931e"/><stop offset=".14" stop-color="#ff9421"/><stop offset=".27" stop-color="#ff9a2d"/><stop offset=".4" stop-color="#ffa341"/><stop offset=".54" stop-color="#ffb15c"/><stop offset=".67" stop-color="#ffc280"/><stop offset=".8" stop-color="#ffd7ab"/><stop offset=".93" stop-color="#ffefde"/><stop offset="1" stop-color="#fff"/></radialGradient><radialGradient id="radial-gradient-2" cx="408.54" cy="335.52" fx="408.54" fy="335.52" r="20.11" xlink:href="#radial-gradient"/></defs><g id="slide_7"><g><path class="cls-10" d="M507.28,126.02c75.62-2.32,123.69,31.16,125.51,139.91"/><polygon class="cls-11" points="607.51 246.82 611.78 242.59 632.57 263.64 652.05 241.36 656.56 245.32 632.84 272.45 607.51 246.82"/></g><text class="cls-1" transform="translate(610.78 155.41)"><tspan x="0" y="0">?</tspan></text></g><g id="Layer_19"><circle class="cls-7" cx="141.25" cy="210.52" r="11.72"/><circle class="cls-7" cx="335.09" cy="296.44" r="11.72"/><circle class="cls-7" cx="335.09" cy="126.02" r="11.72"/><path class="cls-3" d="M167.87,210.88c50.29,0,54.17-9.62,61.55-20.05,14.96-21.17,7.55-29.63,22.52-50.53,11.22-15.67,31.52-14.62,60.08-14.62"/><path class="cls-3" d="M167.94,210.82c50.29,0,54.17,9.62,61.55,20.05,14.96,21.17,7.55,29.63,22.52,50.53,11.22,15.67,31.52,14.62,60.08,14.62"/><circle class="cls-7" cx="483.49" cy="126.02" r="11.72"/><line class="cls-3" x1="358.17" y1="125.67" x2="459.71" y2="125.67"/><polygon class="cls-11" points="483.39 103.71 495.93 82 470.86 82 483.39 103.71"/><circle class="cls-7" cx="483.49" cy="296.44" r="11.72"/><line class="cls-3" x1="358.17" y1="296.08" x2="459.71" y2="296.08"/><circle class="cls-7" cx="632.61" cy="296.44" r="11.72"/><line class="cls-3" x1="507.28" y1="296.08" x2="608.82" y2="296.08"/><text class="cls-9" transform="translate(109.83 190.61)"><tspan x="0" y="0">ε</tspan></text><text class="cls-9" transform="translate(449.63 168.3)"><tspan x="0" y="0">α</tspan></text><text class="cls-9" transform="translate(648.52 334.94)"><tspan x="0" y="0">β</tspan></text><g><circle class="cls-6" cx="249.44" cy="333.6" r="20.11"/><path class="cls-2" d="M263.51,337.56s0-2.96-2.56-2.96-2.56,2.96-2.56,2.96c0,0,.32,4.07-2.88,4.07s-2.88-3.7-2.88-3.7c0,0,.42-3.33-2.51-3.33s-2.48,3.52-2.48,3.52c0,0,.43,3.34-2.89,3.34s-3-3.16-3-3.16c0,0,.42-3.46-2.99-3.46s-2.77,3.46-2.77,3.46"/><path class="cls-2" d="M235.62,355.87s4.72,3.64,13.86,3.64,14.26-3.64,14.26-3.64l3.73,14.74s-7.22,3.39-17.54,3.39-17.21-3.98-17.21-3.98l2.9-14.15Z"/><path class="cls-2" d="M234.81,360.45s4.98,3.67,15.28,3.67,14.68-3.67,14.68-3.67"/><path class="cls-2" d="M233.85,365.17s5.94,3.67,16.24,3.67,16.2-3.67,16.2-3.67"/></g><g><circle class="cls-4" cx="408.54" cy="335.52" r="20.11"/><path class="cls-2" d="M422.61,339.48s0-2.96-2.56-2.96-2.56,2.96-2.56,2.96c0,0,.32,4.07-2.88,4.07s-2.88-3.7-2.88-3.7c0,0,.42-3.33-2.51-3.33s-2.48,3.52-2.48,3.52c0,0,.43,3.34-2.89,3.34s-3-3.16-3-3.16c0,0,.42-3.46-2.99-3.46s-2.77,3.46-2.77,3.46"/><path class="cls-2" d="M394.72,357.79s4.72,3.64,13.86,3.64,14.26-3.64,14.26-3.64l3.73,14.74s-7.22,3.39-17.54,3.39-17.21-3.98-17.21-3.98l2.9-14.15Z"/><path class="cls-2" d="M393.92,362.37s4.98,3.67,15.28,3.67,14.68-3.67,14.68-3.67"/><path class="cls-2" d="M392.95,367.09s5.94,3.67,16.24,3.67,16.2-3.67,16.2-3.67"/></g><g><circle class="cls-5" cx="558.54" cy="335.52" r="20.11"/><path class="cls-2" d="M572.61,339.48s0-2.96-2.56-2.96-2.56,2.96-2.56,2.96c0,0,.32,4.07-2.88,4.07s-2.88-3.7-2.88-3.7c0,0,.42-3.33-2.51-3.33s-2.48,3.52-2.48,3.52c0,0,.43,3.34-2.89,3.34s-3-3.16-3-3.16c0,0,.42-3.46-2.99-3.46s-2.77,3.46-2.77,3.46"/><path class="cls-2" d="M544.72,357.79s4.72,3.64,13.86,3.64,14.26-3.64,14.26-3.64l3.73,14.74s-7.22,3.39-17.54,3.39-17.21-3.98-17.21-3.98l2.9-14.15Z"/><path class="cls-2" d="M543.92,362.37s4.98,3.67,15.28,3.67,14.68-3.67,14.68-3.67"/><path class="cls-2" d="M542.95,367.09s5.94,3.67,16.24,3.67,16.2-3.67,16.2-3.67"/></g><g><path class="cls-12" d="M225.42,90.94c-3.88,0-7.03,3.15-7.03,7.03s3.15,7.03,7.03,7.03,7.03-3.15,7.03-7.03-3.15-7.03-7.03-7.03Zm0,10.21c-1.75,0-3.18-1.42-3.18-3.18s1.42-3.18,3.18-3.18,3.18,1.42,3.18,3.18-1.43,3.18-3.18,3.18Z"/><path class="cls-12" d="M225.42,58.32c-12.48,0-24.38,6-31.85,16.06-.62,.84-.54,2.04,.26,2.71,.36,.3,.8,.44,1.23,.44,.59,0,1.17-.27,1.55-.78,6.74-9.13,17.51-14.57,28.81-14.57,10.69,0,20.91,4.88,27.7,13.14,.65,.79,1.8,.92,2.62,.32h0c.89-.66,1.04-1.93,.33-2.79-7.51-9.13-18.82-14.53-30.65-14.53Z"/><path class="cls-12" d="M225.42,68.98c-9.89,0-19.03,4.97-24.46,13.28-.58,.89-.33,2.08,.56,2.67,.89,.58,2.08,.33,2.67-.56,4.72-7.22,12.65-11.54,21.24-11.54s16.52,4.31,21.24,11.54c.37,.57,.99,.87,1.61,.87,.36,0,.73-.1,1.05-.31,.89-.58,1.14-1.78,.56-2.67-5.43-8.32-14.58-13.28-24.46-13.28Z"/><path class="cls-12" d="M225.42,79.01c-7.28,0-14.05,4.24-17.24,10.78-.39,.78-.21,1.72,.44,2.3,.79,.71,2.01,.65,2.72-.14,.15-.17,.27-.35,.35-.55,2.58-5.19,7.95-8.54,13.73-8.54s11.15,3.34,13.73,8.54c.08,.2,.2,.38,.35,.55,.38,.42,.91,.64,1.43,.64,.46,0,.92-.16,1.29-.49,.64-.58,.82-1.51,.44-2.28-3.2-6.56-9.97-10.8-17.25-10.8Z"/></g><text class="cls-8" transform="translate(268.86 96.19)"><tspan x="0" y="0">ON</tspan></text></g></svg>