<?xml version="1.0" encoding="UTF-8"?>
<svg xmlns="http://www.w3.org/2000/svg" viewBox="0 0 800 426">
    <defs>
        <style>
            .cls-1,.cls-2,.cls-3,.cls-4,.cls-5,.cls-6,.cls-7{stroke-miterlimit:10;}.cls-1,.cls-2,.cls-4,.cls-5,.cls-7{stroke-width:8px;}.cls-1,.cls-3,.cls-4{stroke:#f6a6b0;}.cls-1,.cls-3,.cls-8{fill:#f6a6b0;}.cls-9{letter-spacing:.21em;}.cls-2,.cls-10,.cls-4,.cls-7{fill:none;}.cls-2,.cls-5,.cls-7{stroke:#a7ddef;}.cls-10{stroke-dasharray:0
            0 20
            32;stroke-linecap:round;stroke-linejoin:round;stroke-width:6px;}.cls-10,.cls-6{stroke:#bdbdbd;}.cls-3{font-size:24px;letter-spacing:.15em;}.cls-3,.cls-6{font-family:Roboto-Black,
            Roboto;}.cls-4,.cls-7{stroke-dasharray:0 0 24
            12;}.cls-5{fill:#a7ddef;}.cls-6{fill:#bdbdbd;font-size:32px;stroke-width:2px;}.cls-11{letter-spacing:.18em;}.cls-12{letter-spacing:.27em;}.cls-13{letter-spacing:.27em;}
        </style>
    </defs>
    <g id="slide_16">
        <text class="cls-3" transform="translate(529.97 307.91)">
            <tspan x="0" y="0">X ≤ 100</tspan>
        </text>
        <text class="cls-3" transform="translate(529.94 148.91)">
            <tspan x="0" y="0">X &gt; 100</tspan>
        </text>
    </g>
    <g id="slide_18">
        <circle class="cls-5" cx="314.05" cy="221.11" r="11.05"/>
        <line class="cls-10" x1="369" y1="94" x2="369" y2="378"/>
        <circle class="cls-1" cx="496.94" cy="302.17" r="11.05"/>
        <circle class="cls-1" cx="496.94" cy="141.39" r="11.05"/>
        <path class="cls-4"
              d="M339.17,216c47.44,0,51.11-8.46,58.06-17.63,14.11-18.62,7.12-26.06,21.24-44.44,10.59-13.78,29.74-12.86,56.68-12.86"/>
        <path class="cls-4"
              d="M339.24,228c47.44,0,51.11,8.33,58.06,17.36,14.11,18.33,7.12,25.65,21.24,43.75,10.59,13.57,29.74,12.66,56.68,12.66"/>
        <text class="cls-6" transform="translate(134.49 44.96)">
            <tspan class="cls-12" x="0" y="0">SYMBOLIC EXPLORATION</tspan>
        </text>
        <polygon class="cls-8" points="314.41 200.73 324.29 183.62 304.54 183.62 314.41 200.73"/>
        <line class="cls-2" x1="241" y1="221.08" x2="290.25" y2="221.08"/>
        <line class="cls-7" x1="154" y1="221.08" x2="250.25" y2="221.08"/>
    </g>
</svg>