<?xml version="1.0" encoding="UTF-8"?><svg id="slide_15" xmlns="http://www.w3.org/2000/svg" viewBox="0 0 800 426"><defs><style>.cls-1{letter-spacing:.21em;}.cls-2,.cls-3{stroke:#a7ddef;}.cls-2,.cls-3,.cls-4,.cls-5{stroke-miterlimit:10;}.cls-2,.cls-3,.cls-5{stroke-width:8px;}.cls-2,.cls-5{fill:none;}.cls-6{fill:#f6a6b0;}.cls-3{fill:#a7ddef;}.cls-4{fill:#bdbdbd;font-family:Roboto-Black, Roboto;font-size:32px;stroke:#bdbdbd;stroke-width:2px;}.cls-5{stroke:#f6a6b0;}.cls-7{letter-spacing:.26em;}.cls-8{letter-spacing:.27em;}.cls-9{letter-spacing:.27em;}.cls-10{letter-spacing:.27em;}</style></defs><g><path class="cls-5" d="M439,361c11.15-.71,84.68-6.65,134-71,36.45-47.56,37.94-107.87,37.35-127.5"/><polygon class="cls-6" points="634.68 182.25 630.31 186.37 610.05 164.81 590.03 186.59 585.61 182.52 610.01 156 634.68 182.25"/></g><circle class="cls-3" cx="128.5" cy="239.5" r="16.5"/><circle class="cls-3" cx="401.5" cy="360.5" r="16.5"/><circle class="cls-3" cx="401.5" cy="120.5" r="16.5"/><path class="cls-2" d="M166,240c70.82,0,76.3-13.54,86.68-28.23,21.07-29.81,10.63-41.73,31.71-71.16,15.8-22.07,44.4-20.58,84.61-20.58"/><path class="cls-2" d="M166.09,239.92c70.82,0,76.3,13.54,86.68,28.23,21.07,29.81,10.63,41.73,31.71,71.16,15.8,22.07,44.4,20.58,84.61,20.58"/><circle class="cls-3" cx="610.5" cy="120.5" r="16.5"/><line class="cls-2" x1="434" y1="120" x2="577" y2="120"/><text class="cls-4" transform="translate(192.15 44.96)"><tspan class="cls-8" x="0" y="0">TRANS</tspan><tspan class="cls-7" x="148.54" y="0">I</tspan><tspan class="cls-10" x="166.39" y="0">TIVE S</tspan><tspan class="cls-1" x="315.1" y="0">TA</tspan><tspan class="cls-9" x="370.6" y="0">TE</tspan></text><polygon class="cls-6" points="402.21 388.49 387.47 414.03 416.96 414.03 402.21 388.49"/><polygon class="cls-6" points="612.21 94.54 626.96 69 597.47 69 612.21 94.54"/></svg>