<?xml version="1.0" encoding="UTF-8"?><svg id="slide_7" xmlns="http://www.w3.org/2000/svg" viewBox="0 0 800 426"><defs><style>.cls-1{letter-spacing:.21em;}.cls-2,.cls-3,.cls-4,.cls-5,.cls-6{stroke-miterlimit:10;}.cls-2,.cls-4{stroke:#a7ddef;}.cls-2,.cls-4,.cls-6{stroke-width:8px;}.cls-2,.cls-6{fill:none;}.cls-3{font-size:24px;letter-spacing:.15em;}.cls-3,.cls-7{fill:#f6a6b0;}.cls-3,.cls-5{font-family:Roboto-Black, Roboto;}.cls-3,.cls-6{stroke:#f6a6b0;}.cls-8{letter-spacing:.24em;}.cls-4{fill:#a7ddef;}.cls-5{fill:#e2e4e6;font-size:32px;stroke:#e2e4e6;stroke-width:2px;}.cls-9{letter-spacing:.27em;}.cls-10{letter-spacing:.27em;}</style></defs><g><path class="cls-6" d="M439,337c11.15-.71,84.68-6.65,134-71,36.45-47.56,37.94-107.87,37.35-127.5"/><polygon class="cls-7" points="634.68 158.25 630.31 162.37 610.05 140.81 590.03 162.59 585.61 158.52 610.01 132 634.68 158.25"/></g><circle class="cls-4" cx="128.5" cy="215.5" r="16.5"/><circle class="cls-4" cx="401.5" cy="336.5" r="16.5"/><circle class="cls-4" cx="401.5" cy="96.5" r="16.5"/><path class="cls-2" d="M166,216c70.82,0,76.3-13.54,86.68-28.23,21.07-29.81,10.63-41.73,31.71-71.16,15.8-22.07,44.4-20.58,84.61-20.58"/><path class="cls-2" d="M166.09,215.92c70.82,0,76.3,13.54,86.68,28.23,21.07,29.81,10.63,41.73,31.71,71.16,15.8,22.07,44.4,20.58,84.61,20.58"/><circle class="cls-4" cx="610.5" cy="96.5" r="16.5"/><line class="cls-2" x1="434" y1="96" x2="577" y2="96"/><text class="cls-5" transform="translate(57.04 75.96)"><tspan class="cls-9" x="0" y="0">EXP</tspan><tspan class="cls-8" x="85.08" y="0">L</tspan><tspan class="cls-10" x="110.06" y="0">ORED</tspan><tspan class="cls-9" x="43.33" y="38.4">S</tspan><tspan class="cls-1" x="72" y="38.4">TA</tspan><tspan class="cls-9" x="127.5" y="38.4">TE</tspan></text><polygon class="cls-7" points="402.21 364.49 387.47 390.03 416.96 390.03 402.21 364.49"/><text class="cls-3" transform="translate(593.6 296.36)"><tspan x="0" y="0">JUMP</tspan></text></svg>