<?xml version="1.0" encoding="UTF-8"?><svg id="slide_8" xmlns="http://www.w3.org/2000/svg" viewBox="0 0 800 426"><defs><style>.cls-1{stroke:#e2e4e6;stroke-linejoin:round;stroke-width:3px;}.cls-1,.cls-2{fill:none;}.cls-3{fill:#fff;}.cls-4{letter-spacing:.09em;}.cls-5{font-size:24px;}.cls-5,.cls-6{font-family:Roboto-Black, Roboto;}.cls-5,.cls-7{fill:#f6a6b0;}.cls-5,.cls-8,.cls-2,.cls-9{stroke-miterlimit:10;}.cls-5,.cls-2{stroke:#f6a6b0;}.cls-10,.cls-6{fill:#e2e4e6;}.cls-6{font-size:16px;letter-spacing:.1em;}.cls-11{fill:#232323;}.cls-8{fill:#a7ddef;stroke:#a7ddef;}.cls-8,.cls-2{stroke-width:8px;}.cls-9{stroke:#606060;stroke-width:7px;}.cls-9,.cls-12{fill:#606060;}.cls-13{letter-spacing:.14em;}.cls-14{letter-spacing:.15em;}</style></defs><g><g><path class="cls-9" d="M472.02,284h255.99s2.28,28-30.38,28h-197.88c-23.55,0-28.11-28-27.73-28Z"/><rect class="cls-3" x="568.49" y="286.52" width="63.81" height="13.64"/></g><path class="cls-12" d="M706.4,122c8.16,0,14.78,6.62,14.78,14.78v114.01c0,8.16-6.62,14.78-14.78,14.78h-212c-8.16,0-14.78-6.62-14.78-14.78v-114.01c0-8.16,6.62-14.78,14.78-14.78h212m0-10h-212c-13.66,0-24.78,11.12-24.78,24.78v114.01c0,13.66,11.12,24.78,24.78,24.78h212c13.66,0,24.78-11.12,24.78-24.78v-114.01c0-13.66-11.12-24.78-24.78-24.78h0Z"/></g><circle class="cls-8" cx="600.5" cy="187.5" r="16.5"/><rect class="cls-12" x="76" y="90" width="132" height="234" rx="20.83" ry="20.83"/><rect class="cls-10" x="95" y="109" width="94" height="94" rx="20.83" ry="20.83"/><rect class="cls-10" x="115.39" y="292" width="52.61" height="22.65" rx="8.49" ry="8.49"/><g id="Layer_9"><rect class="cls-10" x="78.58" y="283.35" width="7.42" height="7.65" rx="2.85" ry="2.85"/><rect class="cls-10" x="78.58" y="263.35" width="7.42" height="7.65" rx="2.85" ry="2.85"/><rect class="cls-10" x="78.58" y="243.35" width="7.42" height="7.65" rx="2.85" ry="2.85"/><rect class="cls-10" x="78.58" y="223.35" width="7.42" height="7.65" rx="2.85" ry="2.85"/><rect class="cls-10" x="78.58" y="203.35" width="7.42" height="7.65" rx="2.85" ry="2.85"/><rect class="cls-10" x="78.58" y="183.35" width="7.42" height="7.65" rx="2.85" ry="2.85"/><rect class="cls-10" x="78.58" y="163.35" width="7.42" height="7.65" rx="2.85" ry="2.85"/><rect class="cls-10" x="78.58" y="143.35" width="7.42" height="7.65" rx="2.85" ry="2.85"/><rect class="cls-10" x="78.58" y="123.35" width="7.42" height="7.65" rx="2.85" ry="2.85"/><rect class="cls-10" x="198.58" y="283.35" width="7.42" height="7.65" rx="2.85" ry="2.85"/><rect class="cls-10" x="198.58" y="263.35" width="7.42" height="7.65" rx="2.85" ry="2.85"/><rect class="cls-10" x="198.58" y="243.35" width="7.42" height="7.65" rx="2.85" ry="2.85"/><rect class="cls-10" x="198.58" y="223.35" width="7.42" height="7.65" rx="2.85" ry="2.85"/><rect class="cls-10" x="198.58" y="203.35" width="7.42" height="7.65" rx="2.85" ry="2.85"/><rect class="cls-10" x="198.58" y="183.35" width="7.42" height="7.65" rx="2.85" ry="2.85"/><rect class="cls-10" x="198.58" y="163.35" width="7.42" height="7.65" rx="2.85" ry="2.85"/><rect class="cls-10" x="198.58" y="143.35" width="7.42" height="7.65" rx="2.85" ry="2.85"/><rect class="cls-10" x="198.58" y="123.35" width="7.42" height="7.65" rx="2.85" ry="2.85"/></g><g><g><rect class="cls-10" x="102" y="252.49" width="24.97" height="12.06" rx="3.92" ry="3.92" transform="translate(228.97 517.03) rotate(-180)"/><rect class="cls-11" x="107.74" y="251.55" width="28.17" height="14.64" rx="5.57" ry="5.57" transform="translate(-137.04 380.69) rotate(-90)"/></g><rect class="cls-10" x="124.39" y="266.27" width="8.61" height="3.27" rx=".67" ry=".67" transform="translate(257.39 535.8) rotate(-180)"/><rect class="cls-10" x="124.39" y="257.65" width="8.61" height="3.27" rx=".67" ry=".67" transform="translate(257.39 518.58) rotate(-180)"/><rect class="cls-10" x="124.39" y="249.04" width="8.61" height="3.27" rx=".67" ry=".67" transform="translate(257.39 501.36) rotate(-180)"/></g><rect class="cls-11" x="145.3" y="240.3" width="37.72" height="37.69" rx="5.57" ry="5.57" transform="translate(-94.99 423.3) rotate(-90)"/><rect class="cls-11" x="106.88" y="204.08" width="23.86" height="37.69" rx="5.57" ry="5.57" transform="translate(-104.12 341.74) rotate(-90)"/><g><line class="cls-2" x1="565" y1="188" x2="224.51" y2="188"/><polygon class="cls-7" points="244.39 163.46 248.48 167.86 226.81 187.99 248.48 208.14 244.39 212.53 218 187.99 244.39 163.46"/></g><text class="cls-5" transform="translate(303.26 143.91)"><tspan class="cls-14" x="0" y="0">UP</tspan><tspan class="cls-13" x="38.77" y="0">D</tspan><tspan class="cls-4" x="57.64" y="0">A</tspan><tspan class="cls-14" x="76.18" y="0">TE</tspan><tspan class="cls-14"><tspan x="-42.78" y="28.8">PERIPHERALS</tspan></tspan></text><polygon class="cls-7" points="600.44 216.71 585.69 242.25 615.18 242.25 600.44 216.71"/><g><path class="cls-1" d="M700,240c-.24-3.45-2.28-26.19-24.36-41.45-15.91-10.99-35.98-11.71-43.21-11.56"/><polygon class="cls-10" points="640.9 176.7 642.64 178.57 633.41 187.11 642.61 195.69 640.86 197.55 629.67 187.1 640.9 176.7"/></g><text class="cls-6" transform="translate(664.41 183.7)"><tspan x="0" y="0">JUMP</tspan></text></svg>