<?xml version="1.0" encoding="UTF-8"?><svg id="slide_12" xmlns="http://www.w3.org/2000/svg" viewBox="0 0 800 426"><defs><style>.cls-1{stroke-dasharray:0 0 2 24;}.cls-1,.cls-2,.cls-3,.cls-4,.cls-5,.cls-6,.cls-7,.cls-8,.cls-9,.cls-10{stroke-miterlimit:10;}.cls-1,.cls-2,.cls-3,.cls-4,.cls-5,.cls-6,.cls-8,.cls-9,.cls-10{stroke:#a7ddef;}.cls-1,.cls-2,.cls-3,.cls-4,.cls-6,.cls-8,.cls-9{fill:none;}.cls-1,.cls-2,.cls-5,.cls-6,.cls-8{stroke-width:8px;}.cls-1,.cls-4{stroke-linecap:round;}.cls-3,.cls-4,.cls-9,.cls-10{stroke-width:5px;}.cls-3,.cls-8{stroke-dasharray:0 0 6 4;}.cls-4{stroke-dasharray:0 0 2 12;}.cls-11{letter-spacing:.21em;}.cls-12{letter-spacing:.27em;}.cls-13{fill:#f6a6b0;}.cls-5,.cls-10{fill:#a7ddef;}.cls-6{stroke-dasharray:0 0 8 6;}.cls-14{letter-spacing:.24em;}.cls-7{fill:#e2e4e6;font-family:Roboto-Black, Roboto;font-size:48px;stroke:#e2e4e6;stroke-width:2px;}</style></defs><circle class="cls-5" cx="66.05" cy="211.93" r="16.5"/><polygon class="cls-13" points="65.76 238.92 51.02 264.46 80.51 264.46 65.76 238.92"/><text class="cls-7" transform="translate(424.33 119.7)"><tspan class="cls-12" x="0" y="0">S</tspan><tspan class="cls-11" x="43.01" y="0">TA</tspan><tspan class="cls-12" x="126.25" y="0">TE</tspan><tspan class="cls-12" x="-82.56" y="57.6">EXP</tspan><tspan class="cls-14" x="45.06" y="57.6">L</tspan><tspan class="cls-12" x="82.53" y="57.6">OSION</tspan></text><g><ellipse class="cls-5" cx="275.68" cy="331.12" rx="12.32" ry="11.88"/><ellipse class="cls-5" cx="275.68" cy="92.71" rx="12.32" ry="11.88"/><path class="cls-2" d="M99.55,212.31c52.87,0,56.95-13.46,64.7-28.05,15.73-29.63,7.94-41.46,23.67-70.72,11.8-21.93,33.14-20.46,63.16-20.46"/><path class="cls-2" d="M99.62,212.23c52.87,0,56.95,13.46,64.7,28.05,15.73,29.63,7.94,41.46,23.67,70.72,11.8,21.93,33.14,20.46,63.16,20.46"/><line class="cls-1" x1="276.06" y1="126.92" x2="276.06" y2="296.9"/><path class="cls-2" d="M99.55,212.31c44.03,0,58.83-13.46,65.28-28.05,13.1-29.63-3.4,10.81,9.7-18.45,9.82-21.93,26.22-41.06,51.23-41.06"/><path class="cls-2" d="M177.52,281.78c7.74,21.93,28.55,20.89,48.24,20.89"/><path class="cls-2" d="M99.55,212.31c44.03,0,47.44-4.92,53.89-10.26,13.1-10.84,6.61-15.17,19.72-25.87,9.82-8.02,27.6-7.48,52.61-7.48"/><path class="cls-2" d="M99.55,211.91c44.03,0,47.44,4.92,53.89,10.26,13.1,10.84,6.61,15.17,19.72,25.87,9.82,8.02,27.6,7.48,52.61,7.48"/><line class="cls-2" x1="99.83" y1="211.91" x2="226.04" y2="211.91"/><line class="cls-6" x1="234" y1="125" x2="255.9" y2="124.76"/><line class="cls-6" x1="234" y1="169" x2="255.9" y2="168.76"/><line class="cls-6" x1="234" y1="212" x2="255.9" y2="211.76"/><line class="cls-6" x1="234" y1="255" x2="255.9" y2="254.76"/><line class="cls-6" x1="234" y1="303" x2="255.9" y2="302.76"/></g><g><ellipse class="cls-5" cx="421.01" cy="389.75" rx="8.55" ry="8.25"/><ellipse class="cls-5" cx="421.01" cy="278.92" rx="8.55" ry="8.25"/><path class="cls-2" d="M298.73,330.71c36.59,0,39.42-5.89,44.78-12.29,10.89-12.98,5.49-18.16,16.38-30.97,8.16-9.61,22.94-8.96,43.72-8.96"/><path class="cls-2" d="M298.78,330.66c36.57,0,39.4,6.7,44.76,13.96,10.88,14.74,5.49,20.63,16.38,35.19,8.16,10.91,22.93,10.18,43.7,10.18"/><line class="cls-1" x1="420.97" y1="307" x2="421" y2="365"/><path class="cls-2" d="M298.73,330.71c30.57,0,36.53-3.42,41.01-7.12,9.09-7.52,11.03-10.53,20.13-17.96,6.82-5.57,9.11-5.19,26.47-5.19"/><path class="cls-2" d="M298.73,330.43c30.57,0,34.45,3.42,38.93,7.12,9.09,7.52,7.56,10.53,16.66,17.96,6.82,5.57,14.67,5.19,32.03,5.19"/><line class="cls-2" x1="298.93" y1="330.43" x2="386.55" y2="330.43"/><line class="cls-8" x1="391" y1="300.48" x2="407.27" y2="300.48"/><line class="cls-8" x1="391" y1="330.48" x2="407.27" y2="330.48"/><line class="cls-8" x1="391" y1="360.48" x2="407.27" y2="360.48"/></g><g><ellipse class="cls-10" cx="508.21" cy="313.35" rx="4.82" ry="4.65"/><ellipse class="cls-10" cx="508.21" cy="250.84" rx="4.82" ry="4.65"/><path class="cls-9" d="M439.24,280.05c20.64,0,22.23-3.32,25.26-6.93,6.14-7.32,3.1-10.24,9.24-17.47,4.6-5.42,12.94-5.05,24.66-5.05"/><path class="cls-9" d="M439.27,280.02c20.63,0,22.22,3.78,25.25,7.87,6.14,8.32,3.1,11.64,9.24,19.85,4.6,6.16,12.93,5.74,24.65,5.74"/><line class="cls-4" x1="508.19" y1="266.68" x2="508.2" y2="299.39"/><path class="cls-9" d="M439.24,280.05c17.24,0,20.61-1.93,23.13-4.02,5.13-4.24,6.22-5.94,11.36-10.13,3.85-3.14,5.14-2.93,14.93-2.93"/><path class="cls-9" d="M439.24,279.89c17.24,0,19.43,1.93,21.96,4.02,5.13,4.24,4.27,5.94,9.4,10.13,3.85,3.14,8.27,2.93,18.06,2.93"/><line class="cls-9" x1="439.35" y1="279.89" x2="488.77" y2="279.89"/><line class="cls-3" x1="491.28" y1="262.99" x2="500.46" y2="262.99"/><line class="cls-3" x1="491.28" y1="279.92" x2="500.46" y2="279.92"/><line class="cls-3" x1="491.28" y1="296.84" x2="500.46" y2="296.84"/></g></svg>