<?xml version="1.0" encoding="UTF-8"?><svg id="slide_6" xmlns="http://www.w3.org/2000/svg" viewBox="0 0 800 426"><defs><style>.cls-1,.cls-2{stroke:#a7ddef;stroke-width:8px;}.cls-1,.cls-2,.cls-3{stroke-miterlimit:10;}.cls-1,.cls-4,.cls-5,.cls-6,.cls-7{fill:none;}.cls-8{letter-spacing:.26em;}.cls-9{letter-spacing:.24em;}.cls-10{fill:#f6a6b0;}.cls-2{fill:#a7ddef;}.cls-3{fill:#bdbdbd;font-family:Roboto-Black, Roboto;font-size:32px;stroke-width:2px;}.cls-3,.cls-4,.cls-5,.cls-6,.cls-7{stroke:#bdbdbd;}.cls-4{stroke-dasharray:0 0 19.16 30.66;}.cls-4,.cls-5,.cls-6,.cls-7{stroke-linecap:round;stroke-linejoin:round;stroke-width:6px;}.cls-6{stroke-dasharray:0 0 16.33 26.13;}.cls-7{stroke-dasharray:0 0 21.87 35;}.cls-11{letter-spacing:.18em;}.cls-12{letter-spacing:.27em;}.cls-13{letter-spacing:.27em;}</style></defs><circle class="cls-2" cx="128.5" cy="215.5" r="16.5"/><circle class="cls-2" cx="401.5" cy="336.5" r="16.5"/><circle class="cls-2" cx="401.5" cy="96.5" r="16.5"/><path class="cls-1" d="M166,216c70.82,0,76.3-13.54,86.68-28.23,21.07-29.81,10.63-41.73,31.71-71.16,15.8-22.07,44.4-20.58,84.61-20.58"/><path class="cls-1" d="M166.09,215.92c70.82,0,76.3,13.54,86.68,28.23,21.07,29.81,10.63,41.73,31.71,71.16,15.8,22.07,44.4,20.58,84.61,20.58"/><circle class="cls-2" cx="610.5" cy="96.5" r="16.5"/><line class="cls-1" x1="434" y1="96" x2="577" y2="96"/><g><line class="cls-5" x1="677" y1="22" x2="677" y2="32"/><line class="cls-6" x1="677" y1="58.13" x2="677" y2="129.99"/><polyline class="cls-5" points="677 143.06 677 153.06 667 153.06"/><line class="cls-7" x1="632" y1="153.06" x2="478.89" y2="153.06"/><polyline class="cls-5" points="461.39 153.06 451.39 153.06 451.39 163.06"/><line class="cls-4" x1="451.39" y1="193.72" x2="451.39" y2="377.67"/><line class="cls-5" x1="451.39" y1="393" x2="451.39" y2="403"/></g><polygon class="cls-10" points="401.21 364.49 386.47 390.03 415.96 390.03 401.21 364.49"/><text class="cls-3" transform="translate(492.92 260.75)"><tspan class="cls-12" x="0" y="0">UNEXP</tspan><tspan class="cls-9" x="146.09" y="0">L</tspan><tspan class="cls-13" x="171.07" y="0">ORED</tspan><tspan class="cls-12" x="72.77" y="38.4">S</tspan><tspan class="cls-11" x="101.44" y="38.4">P</tspan><tspan class="cls-8" x="128.13" y="38.4">A</tspan><tspan class="cls-12" x="158.24" y="38.4">CE</tspan></text><text class="cls-3" transform="translate(57.04 75.96)"><tspan class="cls-12" x="0" y="0">EXP</tspan><tspan class="cls-9" x="85.08" y="0">L</tspan><tspan class="cls-13" x="110.06" y="0">ORED</tspan><tspan class="cls-12" x="42.26" y="38.4">S</tspan><tspan class="cls-11" x="70.94" y="38.4">P</tspan><tspan class="cls-8" x="97.62" y="38.4">A</tspan><tspan class="cls-12" x="127.73" y="38.4">CE</tspan></text></svg>