<?xml version="1.0" encoding="UTF-8"?><svg xmlns="http://www.w3.org/2000/svg" xmlns:xlink="http://www.w3.org/1999/xlink" viewBox="0 0 800 426"><defs><style>.cls-1{letter-spacing:.21em;}.cls-2{letter-spacing:.21em;}.cls-3{stroke-width:3px;}.cls-3,.cls-4,.cls-5,.cls-6,.cls-7,.cls-8,.cls-9,.cls-10,.cls-11,.cls-12,.cls-13{stroke-miterlimit:10;}.cls-3,.cls-4,.cls-7,.cls-12{fill:none;}.cls-3,.cls-5,.cls-7,.cls-8,.cls-13{stroke:#606060;}.cls-4,.cls-9{stroke:#a7ddef;}.cls-4,.cls-9,.cls-12{stroke-width:8px;}.cls-5{fill:url(#radial-gradient-2);}.cls-5,.cls-7,.cls-8{stroke-width:4px;}.cls-6{font-size:44.7px;}.cls-6,.cls-14,.cls-11{fill:#f6a6b0;}.cls-6,.cls-10,.cls-11,.cls-13{font-family:Roboto-Black, Roboto;}.cls-6,.cls-11,.cls-12{stroke:#f6a6b0;}.cls-6,.cls-13{letter-spacing:.15em;}.cls-8{fill:url(#radial-gradient);}.cls-9{fill:#a7ddef;}.cls-10{fill:#bdbdbd;font-size:32px;stroke:#bdbdbd;stroke-width:2px;}.cls-11{font-size:38px;letter-spacing:.15em;}.cls-15,.cls-13{fill:#606060;}.cls-16{letter-spacing:.27em;}.cls-13{font-size:22.35px;}.cls-17{letter-spacing:.27em;}.cls-18{letter-spacing:.26em;}</style><radialGradient id="radial-gradient" cx="268.42" cy="352.59" fx="268.42" fy="352.59" r="18.72" gradientUnits="userSpaceOnUse"><stop offset="0" stop-color="#ff931e"/><stop offset=".14" stop-color="#ff9421"/><stop offset=".27" stop-color="#ff9a2d"/><stop offset=".4" stop-color="#ffa341"/><stop offset=".54" stop-color="#ffb15c"/><stop offset=".67" stop-color="#ffc280"/><stop offset=".8" stop-color="#ffd7ab"/><stop offset=".93" stop-color="#ffefde"/><stop offset="1" stop-color="#fff"/></radialGradient><radialGradient id="radial-gradient-2" cx="416.58" cy="354.37" fx="416.58" fy="354.37" r="18.72" xlink:href="#radial-gradient"/></defs><g id="slide_7"><g><path class="cls-12" d="M508.53,159.29c70.32-2.16,115.05,28.93,116.88,129.85"/><polygon class="cls-14" points="600.06 270.09 604.31 265.85 625.17 286.84 644.57 264.5 649.1 268.45 625.46 295.64 600.06 270.09"/></g><text class="cls-6" transform="translate(604.92 186.65)"><tspan x="0" y="0">?</tspan></text></g><g id="Layer_19"><circle class="cls-9" cx="167.67" cy="237.97" r="10.91"/><circle class="cls-9" cx="348.18" cy="317.98" r="10.91"/><circle class="cls-9" cx="348.18" cy="159.29" r="10.91"/><path class="cls-4" d="M192.46,238.3c46.83,0,50.45-8.95,57.31-18.67,13.93-19.71,7.03-27.59,20.97-47.06,10.45-14.59,29.36-13.61,55.95-13.61"/><path class="cls-4" d="M192.53,238.25c46.83,0,50.45,8.95,57.31,18.67,13.93,19.71,7.03,27.59,20.97,47.06,10.45,14.59,29.36,13.61,55.95,13.61"/><circle class="cls-9" cx="486.38" cy="159.29" r="10.91"/><line class="cls-4" x1="369.67" y1="158.96" x2="464.23" y2="158.96"/><polygon class="cls-14" points="486.29 138.51 497.96 118.29 474.61 118.29 486.29 138.51"/><circle class="cls-9" cx="486.38" cy="317.98" r="10.91"/><line class="cls-4" x1="369.67" y1="317.65" x2="464.23" y2="317.65"/><circle class="cls-9" cx="625.24" cy="317.98" r="10.91"/><line class="cls-4" x1="508.53" y1="317.65" x2="603.09" y2="317.65"/><text class="cls-11" transform="translate(138.42 219.43)"><tspan x="0" y="0">ε</tspan></text><text class="cls-11" transform="translate(454.85 198.66)"><tspan x="0" y="0">α</tspan></text><text class="cls-11" transform="translate(640.07 353.84)"><tspan x="0" y="0">β</tspan></text><g><circle class="cls-8" cx="268.42" cy="352.59" r="18.72"/><path class="cls-3" d="M281.53,356.28s0-2.76-2.38-2.76-2.38,2.76-2.38,2.76c0,0,.3,3.79-2.68,3.79s-2.68-3.45-2.68-3.45c0,0,.39-3.1-2.34-3.1s-2.31,3.28-2.31,3.28c0,0,.4,3.11-2.69,3.11s-2.79-2.94-2.79-2.94c0,0,.39-3.22-2.78-3.22s-2.58,3.22-2.58,3.22"/><path class="cls-3" d="M255.55,373.33s4.39,3.39,12.91,3.39,13.28-3.39,13.28-3.39l3.47,13.73s-6.73,3.16-16.34,3.16-16.02-3.71-16.02-3.71l2.71-13.18Z"/><path class="cls-3" d="M254.8,377.6s4.64,3.42,14.23,3.42,13.67-3.42,13.67-3.42"/><path class="cls-3" d="M253.9,381.99s5.53,3.42,15.12,3.42,15.08-3.42,15.08-3.42"/></g><g><circle class="cls-5" cx="416.58" cy="354.37" r="18.72"/><path class="cls-3" d="M429.69,358.07s0-2.76-2.38-2.76-2.38,2.76-2.38,2.76c0,0,.3,3.79-2.68,3.79s-2.68-3.45-2.68-3.45c0,0,.39-3.1-2.34-3.1s-2.31,3.28-2.31,3.28c0,0,.4,3.11-2.69,3.11s-2.79-2.94-2.79-2.94c0,0,.39-3.22-2.78-3.22s-2.58,3.22-2.58,3.22"/><path class="cls-3" d="M403.72,375.11s4.39,3.39,12.91,3.39,13.28-3.39,13.28-3.39l3.47,13.73s-6.73,3.16-16.34,3.16-16.02-3.71-16.02-3.71l2.71-13.18Z"/><path class="cls-3" d="M402.96,379.38s4.64,3.42,14.23,3.42,13.67-3.42,13.67-3.42"/><path class="cls-3" d="M402.07,383.78s5.53,3.42,15.12,3.42,15.08-3.42,15.08-3.42"/></g><g><circle class="cls-7" cx="556.27" cy="354.37" r="18.72"/><path class="cls-3" d="M569.38,358.07s0-2.76-2.38-2.76-2.38,2.76-2.38,2.76c0,0,.3,3.79-2.68,3.79s-2.68-3.45-2.68-3.45c0,0,.39-3.1-2.34-3.1s-2.31,3.28-2.31,3.28c0,0,.4,3.11-2.69,3.11s-2.79-2.94-2.79-2.94c0,0,.39-3.22-2.78-3.22s-2.58,3.22-2.58,3.22"/><path class="cls-3" d="M543.4,375.11s4.39,3.39,12.91,3.39,13.28-3.39,13.28-3.39l3.47,13.73s-6.73,3.16-16.34,3.16-16.02-3.71-16.02-3.71l2.71-13.18Z"/><path class="cls-3" d="M542.65,379.38s4.64,3.42,14.23,3.42,13.67-3.42,13.67-3.42"/><path class="cls-3" d="M541.75,383.78s5.53,3.42,15.12,3.42,15.08-3.42,15.08-3.42"/></g><g><path class="cls-15" d="M246.05,126.62c-3.61,0-6.55,2.94-6.55,6.55s2.94,6.55,6.55,6.55,6.55-2.94,6.55-6.55-2.94-6.55-6.55-6.55Zm0,9.5c-1.63,0-2.96-1.33-2.96-2.96s1.33-2.96,2.96-2.96,2.96,1.33,2.96,2.96-1.33,2.96-2.96,2.96Z"/><path class="cls-15" d="M246.05,96.24c-11.62,0-22.7,5.59-29.66,14.95-.58,.78-.51,1.9,.25,2.52,.34,.28,.74,.41,1.14,.41,.55,0,1.09-.25,1.44-.73,6.28-8.5,16.31-13.57,26.83-13.57,9.96,0,19.48,4.55,25.79,12.24,.6,.73,1.68,.86,2.44,.29h0c.83-.61,.97-1.8,.31-2.59-6.99-8.5-17.52-13.53-28.54-13.53Z"/><path class="cls-15" d="M246.05,106.17c-9.21,0-17.73,4.62-22.78,12.37-.54,.83-.31,1.94,.52,2.48,.83,.54,1.94,.31,2.48-.52,4.39-6.73,11.78-10.74,19.78-10.74s15.39,4.02,19.78,10.74c.34,.53,.92,.81,1.5,.81,.34,0,.68-.09,.98-.29,.83-.54,1.06-1.65,.52-2.48-5.06-7.75-13.57-12.37-22.78-12.37Z"/><path class="cls-15" d="M246.05,115.51c-6.78,0-13.08,3.95-16.05,10.04-.36,.72-.19,1.6,.41,2.14,.74,.66,1.87,.6,2.53-.13,.14-.16,.25-.33,.32-.51,2.4-4.83,7.41-7.95,12.79-7.95s10.38,3.11,12.79,7.95c.08,.18,.18,.36,.32,.51,.35,.39,.84,.59,1.33,.59,.43,0,.86-.15,1.2-.46,.59-.54,.76-1.41,.41-2.12-2.98-6.11-9.28-10.06-16.06-10.06Z"/></g><text class="cls-13" transform="translate(286.51 131.5)"><tspan x="0" y="0">ON</tspan></text><text class="cls-10" transform="translate(171.57 44.88)"><tspan class="cls-16" x="0" y="0">S</tspan><tspan class="cls-1" x="28.67" y="0">TA</tspan><tspan class="cls-17" x="84.17" y="0">TE RES</tspan><tspan class="cls-18" x="240.87" y="0">T</tspan><tspan class="cls-17" x="269.24" y="0">OR</tspan><tspan class="cls-2" x="329.49" y="0">A</tspan><tspan class="cls-17" x="358.05" y="0">TION</tspan></text></g></svg>