<?xml version="1.0" encoding="UTF-8"?><svg id="slide_8" xmlns="http://www.w3.org/2000/svg" viewBox="0 0 800 426"><defs><style>.cls-1{letter-spacing:.09em;}.cls-2,.cls-3{font-family:Roboto-Black, Roboto;font-size:24px;}.cls-2,.cls-3,.cls-4{fill:#f6a6b0;}.cls-2,.cls-3,.cls-5,.cls-6{stroke-miterlimit:10;}.cls-2,.cls-3,.cls-6{stroke:#f6a6b0;}.cls-7{fill:#e2e4e6;}.cls-8{fill:#232323;}.cls-3,.cls-9{letter-spacing:.15em;}.cls-5{fill:#a7ddef;stroke:#a7ddef;}.cls-5,.cls-6{stroke-width:8px;}.cls-6{fill:none;}.cls-10{fill:#606060;}.cls-11{letter-spacing:.14em;}</style></defs><g><path class="cls-6" d="M439,337c11.15-.71,84.68-6.65,134-71,36.45-47.56,37.94-107.87,37.35-127.5"/><polygon class="cls-4" points="634.68 158.25 630.31 162.37 610.05 140.81 590.03 162.59 585.61 158.52 610.01 132 634.68 158.25"/></g><circle class="cls-5" cx="401.5" cy="336.5" r="16.5"/><circle class="cls-5" cx="610.5" cy="96.5" r="16.5"/><polygon class="cls-4" points="402.21 364.49 387.47 390.03 416.96 390.03 402.21 364.49"/><text class="cls-3" transform="translate(593.6 296.36)"><tspan x="0" y="0">JUMP</tspan></text><rect class="cls-10" x="139" y="61" width="132" height="234" rx="20.83" ry="20.83"/><rect class="cls-7" x="158" y="80" width="94" height="94" rx="20.83" ry="20.83"/><rect class="cls-7" x="178.39" y="263" width="52.61" height="22.65" rx="8.49" ry="8.49"/><g id="Layer_9"><rect class="cls-7" x="141.58" y="254.35" width="7.42" height="7.65" rx="2.85" ry="2.85"/><rect class="cls-7" x="141.58" y="234.35" width="7.42" height="7.65" rx="2.85" ry="2.85"/><rect class="cls-7" x="141.58" y="214.35" width="7.42" height="7.65" rx="2.85" ry="2.85"/><rect class="cls-7" x="141.58" y="194.35" width="7.42" height="7.65" rx="2.85" ry="2.85"/><rect class="cls-7" x="141.58" y="174.35" width="7.42" height="7.65" rx="2.85" ry="2.85"/><rect class="cls-7" x="141.58" y="154.35" width="7.42" height="7.65" rx="2.85" ry="2.85"/><rect class="cls-7" x="141.58" y="134.35" width="7.42" height="7.65" rx="2.85" ry="2.85"/><rect class="cls-7" x="141.58" y="114.35" width="7.42" height="7.65" rx="2.85" ry="2.85"/><rect class="cls-7" x="141.58" y="94.35" width="7.42" height="7.65" rx="2.85" ry="2.85"/><rect class="cls-7" x="261.58" y="254.35" width="7.42" height="7.65" rx="2.85" ry="2.85"/><rect class="cls-7" x="261.58" y="234.35" width="7.42" height="7.65" rx="2.85" ry="2.85"/><rect class="cls-7" x="261.58" y="214.35" width="7.42" height="7.65" rx="2.85" ry="2.85"/><rect class="cls-7" x="261.58" y="194.35" width="7.42" height="7.65" rx="2.85" ry="2.85"/><rect class="cls-7" x="261.58" y="174.35" width="7.42" height="7.65" rx="2.85" ry="2.85"/><rect class="cls-7" x="261.58" y="154.35" width="7.42" height="7.65" rx="2.85" ry="2.85"/><rect class="cls-7" x="261.58" y="134.35" width="7.42" height="7.65" rx="2.85" ry="2.85"/><rect class="cls-7" x="261.58" y="114.35" width="7.42" height="7.65" rx="2.85" ry="2.85"/><rect class="cls-7" x="261.58" y="94.35" width="7.42" height="7.65" rx="2.85" ry="2.85"/></g><g><g><rect class="cls-7" x="165" y="223.49" width="24.97" height="12.06" rx="3.92" ry="3.92" transform="translate(354.97 459.03) rotate(-180)"/><rect class="cls-8" x="170.74" y="222.55" width="28.17" height="14.64" rx="5.57" ry="5.57" transform="translate(-45.04 414.69) rotate(-90)"/></g><rect class="cls-7" x="187.39" y="237.27" width="8.61" height="3.27" rx=".67" ry=".67" transform="translate(383.39 477.8) rotate(-180)"/><rect class="cls-7" x="187.39" y="228.65" width="8.61" height="3.27" rx=".67" ry=".67" transform="translate(383.39 460.58) rotate(-180)"/><rect class="cls-7" x="187.39" y="220.04" width="8.61" height="3.27" rx=".67" ry=".67" transform="translate(383.39 443.36) rotate(-180)"/></g><rect class="cls-8" x="208.3" y="211.3" width="37.72" height="37.69" rx="5.57" ry="5.57" transform="translate(-2.99 457.3) rotate(-90)"/><rect class="cls-8" x="169.88" y="175.08" width="23.86" height="37.69" rx="5.57" ry="5.57" transform="translate(-12.12 375.74) rotate(-90)"/><g><line class="cls-6" x1="575" y1="97" x2="296.51" y2="97"/><polygon class="cls-4" points="316.39 72.46 320.48 76.86 298.81 96.99 320.48 117.14 316.39 121.53 290 96.99 316.39 72.46"/></g><text class="cls-2" transform="translate(389.26 56.91)"><tspan class="cls-9" x="0" y="0">UP</tspan><tspan class="cls-11" x="38.77" y="0">D</tspan><tspan class="cls-1" x="57.64" y="0">A</tspan><tspan class="cls-9" x="76.18" y="0">TE</tspan><tspan class="cls-9"><tspan x="-42.78" y="28.8">PERIPHERALS</tspan></tspan></text></svg>